<svg width="72" height="219" viewBox="0 0 72 219" fill="none" xmlns="http://www.w3.org/2000/svg">
<path d="M1.74122 186.606L32.1605 216.988C33.1689 217.996 34.5362 218.561 35.9615 218.56C37.3868 218.559 38.7534 217.992 39.7607 216.984L70.1429 186.564C70.8963 185.813 71.4096 184.854 71.6177 183.811C71.8258 182.767 71.7192 181.685 71.3116 180.702C70.904 179.718 70.2136 178.878 69.328 178.288C68.4424 177.698 67.4015 177.384 66.3372 177.386L41.3098 177.409L41.2095 0.377523L30.4477 0.384081L30.5631 177.415L5.53572 177.423C4.47142 177.422 3.43087 177.737 2.546 178.329C1.66113 178.92 0.971777 179.761 0.565342 180.745C0.158907 181.728 0.0536923 182.81 0.263034 183.854C0.472375 184.898 0.986845 185.855 1.74122 186.606Z" fill="#1F3E53"/>
</svg>
