<svg width="51" height="68" viewBox="0 0 51 68" fill="none" xmlns="http://www.w3.org/2000/svg">
<path fill-rule="evenodd" clip-rule="evenodd" d="M42.4168 29.3502L40.398 27.6911C40.398 27.6911 41.9373 25.6727 43.2072 24.0068C47.8798 28.6124 50.7777 35.0133 50.7777 42.0858C50.7777 52.1651 44.8913 60.8805 36.3721 64.9791V55.5154L42.4168 51.4618V29.3502Z" fill="#F7901E"/>
<path fill-rule="evenodd" clip-rule="evenodd" d="M16.585 66.0617C21.924 67.8746 27.2372 68.0504 32.5167 66.4206V54.2663L37.567 50.9078V30.9712L16.585 42.7877" fill="#1F3E53"/>
<path fill-rule="evenodd" clip-rule="evenodd" d="M42.4164 19.7368V16.936L12.4766 33.7321V36.5704" fill="#1F3E53"/>
<path fill-rule="evenodd" clip-rule="evenodd" d="M42.4164 15.8795V13.0693L12.4766 29.8654V32.7037L42.4164 15.8795Z" fill="#1F3E53"/>
<path fill-rule="evenodd" clip-rule="evenodd" d="M37.568 30.0434V23.4924L12.4766 37.5794V44.1676L37.568 30.0434Z" fill="#1F3E53"/>
<path fill-rule="evenodd" clip-rule="evenodd" d="M13.8804 55.776V64.9792C5.64516 60.7798 0 52.217 0 42.346C0 31.0742 7.36166 21.508 17.5353 18.1973C18.4579 17.8971 12.477 0 24.6108 0C36.3721 0 30.5749 16.774 30.5749 16.774C30.5749 16.774 12.3927 26.9637 7.83579 29.6107V51.722L13.8804 55.776ZM24.6108 4.14207C22.1472 4.14207 20.1471 6.14214 20.1471 8.60569C20.1471 11.0692 22.1472 14.3532 24.6108 14.3532C27.0745 14.3532 29.0744 11.0692 29.0744 8.60569C29.0744 6.14214 27.0745 4.14207 24.6108 4.14207Z" fill="#F7901E"/>
</svg>
