<svg width="208" height="68" viewBox="0 0 208 68" fill="none" xmlns="http://www.w3.org/2000/svg">
<path fill-rule="evenodd" clip-rule="evenodd" d="M42.4158 29.3502L40.397 27.6911C40.397 27.6911 41.9363 25.6727 43.2063 24.0068C47.8788 28.6124 50.7767 35.0133 50.7767 42.0858C50.7767 52.1651 44.8903 60.8805 36.3711 64.9791V55.5154L42.4158 51.4618V29.3502Z" fill="#F7901E"/>
<path fill-rule="evenodd" clip-rule="evenodd" d="M16.5859 66.0617C21.925 67.8746 27.2382 68.0504 32.5177 66.4206V54.2663L37.568 50.9078V30.9712L16.5859 42.7877" fill="#1F3E53"/>
<path fill-rule="evenodd" clip-rule="evenodd" d="M42.4164 19.7368V16.936L12.4766 33.7321V36.5704" fill="#1F3E53"/>
<path fill-rule="evenodd" clip-rule="evenodd" d="M42.4164 15.8795V13.0693L12.4766 29.8654V32.7037L42.4164 15.8795Z" fill="#1F3E53"/>
<path fill-rule="evenodd" clip-rule="evenodd" d="M37.568 30.0434V23.4924L12.4766 37.5794V44.1676L37.568 30.0434Z" fill="#1F3E53"/>
<path fill-rule="evenodd" clip-rule="evenodd" d="M13.8804 55.776V64.9792C5.64516 60.7798 0 52.217 0 42.346C0 31.0742 7.36166 21.508 17.5353 18.1973C18.4579 17.8971 12.477 0 24.6108 0C36.3721 0 30.5749 16.774 30.5749 16.774C30.5749 16.774 12.3927 26.9637 7.83579 29.6107V51.722L13.8804 55.776ZM24.6108 4.14207C22.1472 4.14207 20.1471 6.14214 20.1471 8.60569C20.1471 11.0692 22.1472 14.3532 24.6108 14.3532C27.0745 14.3532 29.0744 11.0692 29.0744 8.60569C29.0744 6.14214 27.0745 4.14207 24.6108 4.14207Z" fill="#F7901E"/>
<path d="M67.1321 49.6344C65.7528 49.6344 64.4915 49.4313 63.3483 49.0251C62.2051 48.6188 61.2887 47.9811 60.599 47.1119C59.9093 46.2427 59.5645 45.0995 59.5645 43.6823V43.3564C59.5645 43.2525 59.5739 43.1533 59.5928 43.0588H63.4192C63.4003 43.1533 63.3908 43.2383 63.3908 43.3138V43.569C63.3908 44.1737 63.5372 44.6932 63.8301 45.1278C64.123 45.5624 64.5576 45.8931 65.1339 46.1199C65.7102 46.3466 66.3952 46.46 67.1888 46.46C68.0769 46.46 68.8044 46.3702 69.3712 46.1907C69.9381 46.0112 70.3633 45.7325 70.6467 45.3546C70.9301 44.9767 71.0719 44.5137 71.0719 43.9658C71.0719 43.38 70.8687 42.9123 70.4625 42.5628C70.0562 42.2132 69.5271 41.9345 68.8752 41.7266C68.2234 41.5188 67.5053 41.3251 66.7211 41.1456C65.937 40.9661 65.1528 40.7536 64.3686 40.5078C63.5845 40.2622 62.8617 39.9315 62.2004 39.5159C61.539 39.1002 61.01 38.5522 60.6132 37.8719C60.2164 37.1917 60.018 36.3225 60.018 35.2644C60.018 33.9983 60.3628 32.9496 61.0525 32.1182C61.7422 31.2868 62.6586 30.6633 63.8018 30.2476C64.945 29.8319 66.1874 29.624 67.5289 29.624C68.8705 29.624 70.0893 29.8177 71.1852 30.2051C72.2812 30.5924 73.1598 31.1971 73.8212 32.019C74.4825 32.841 74.8132 33.9039 74.8132 35.2077V35.5761H71.0435V35.236C71.0435 34.7258 70.9065 34.2818 70.6325 33.9039C70.3585 33.526 69.9665 33.2378 69.4563 33.0394C68.9461 32.841 68.3225 32.7418 67.5856 32.7418C66.9054 32.7418 66.3054 32.8127 65.7858 32.9544C65.2662 33.0961 64.8647 33.3228 64.5812 33.6346C64.2978 33.9464 64.1561 34.3479 64.1561 34.8392C64.1561 35.4061 64.3545 35.8596 64.7513 36.1997C65.1481 36.5398 65.6772 36.8091 66.3385 37.0075C66.9999 37.2059 67.7321 37.3948 68.5351 37.5743C69.3382 37.7538 70.1318 37.9617 70.916 38.1979C71.7001 38.4341 72.4229 38.7553 73.0842 39.1615C73.7456 39.5679 74.2747 40.1063 74.6715 40.7772C75.0683 41.4479 75.2667 42.3029 75.2667 43.3422C75.2667 44.8538 74.9077 46.0679 74.1896 46.9844C73.4716 47.9008 72.5032 48.5716 71.2844 48.9967C70.0657 49.4218 68.6816 49.6344 67.1321 49.6344Z" fill="#1F3E53"/>
<path d="M78.7031 49.351V29.9075H85.3922L90.2106 43.2289H90.2956L95.0856 29.9075H101.803V49.351H97.6933V34.6975H97.5799L92.3363 49.351H87.773L82.5579 34.6975H82.4161V49.351H78.7031Z" fill="#1F3E53"/>
<path d="M105.693 49.3508V29.9072H119.213L118.76 33.0817H109.803V37.8717H118.108V40.9895H109.803V46.1763H118.873L119.326 49.3508H105.693Z" fill="#1F3E53"/>
<path d="M63.2285 62.5366C62.5608 62.5366 61.9498 62.4382 61.3965 62.2416C60.8432 62.045 60.3999 61.7364 60.0655 61.3153C59.7322 60.8948 59.5645 60.3411 59.5645 59.6552V59.4976C59.5645 59.4473 59.5689 59.3993 59.5789 59.3532H61.4309C61.422 59.3993 61.4165 59.4402 61.4165 59.4769V59.6002C61.4165 59.8932 61.4876 60.1449 61.6298 60.3552C61.772 60.5655 61.982 60.7254 62.2608 60.835C62.5397 60.9451 62.8719 60.9997 63.2552 60.9997C63.6851 60.9997 64.0373 60.9564 64.3117 60.8694C64.5861 60.7828 64.7928 60.6478 64.9294 60.4648C65.0672 60.2818 65.135 60.0579 65.135 59.7926C65.135 59.5089 65.0372 59.2826 64.8406 59.1133C64.6439 58.9439 64.3873 58.8094 64.0717 58.7087C63.7562 58.6081 63.4085 58.5144 63.0296 58.4274C62.6497 58.3404 62.2697 58.2374 61.8898 58.1183C61.5109 57.9998 61.1609 57.8399 60.841 57.6385C60.521 57.4372 60.2644 57.1719 60.0722 56.8426C59.88 56.5133 59.7844 56.0927 59.7844 55.5804C59.7844 54.9675 59.9511 54.4599 60.2855 54.0572C60.6188 53.655 61.0621 53.353 61.6165 53.1516C62.1697 52.9503 62.7708 52.8496 63.4196 52.8496C64.0695 52.8496 64.6595 52.9437 65.1905 53.1309C65.7205 53.3186 66.146 53.6112 66.4659 54.0092C66.7859 54.4072 66.9459 54.9218 66.9459 55.5527V55.7309H65.1216V55.5663C65.1216 55.3193 65.055 55.1048 64.9228 54.9218C64.7906 54.7388 64.6006 54.5991 64.3528 54.5032C64.1062 54.4072 63.804 54.3592 63.4474 54.3592C63.1185 54.3592 62.8274 54.3935 62.5764 54.4622C62.3253 54.5304 62.1308 54.6405 61.9931 54.7915C61.8564 54.9421 61.7876 55.1368 61.7876 55.3744C61.7876 55.6486 61.8831 55.8683 62.0753 56.033C62.2675 56.1976 62.5241 56.3279 62.8441 56.4239C63.1641 56.5203 63.5185 56.6116 63.9073 56.6986C64.2962 56.7856 64.6806 56.8858 65.0594 57.0001C65.4394 57.1149 65.7894 57.2702 66.1093 57.4668C66.4293 57.6635 66.6859 57.9241 66.8781 58.2491C67.0703 58.5737 67.1659 58.9877 67.1659 59.4906C67.1659 60.2226 66.9926 60.8101 66.6448 61.2537C66.2971 61.6973 65.8282 62.0219 65.2383 62.228C64.6484 62.4335 63.9784 62.5366 63.2285 62.5366Z" fill="#F7901E"/>
<path d="M71.0884 62.537C70.6951 62.537 70.3429 62.482 70.0319 62.3724C69.7208 62.2628 69.4786 62.0774 69.3053 61.8168C69.1308 61.5562 69.0442 61.2109 69.0442 60.7809V56.788H68.2754V55.3885H69.0986L69.7575 53.1521H70.9107V55.3885H72.5572V56.788H70.9107V60.3693C70.9107 60.7715 70.9929 61.0279 71.1573 61.1375C71.3217 61.2471 71.5006 61.3022 71.6917 61.3022C71.7928 61.3022 71.9328 61.2815 72.1105 61.2405C72.2894 61.1991 72.4327 61.1559 72.5427 61.1102V62.2628C72.4238 62.3268 72.2772 62.3794 72.1039 62.4204C71.9306 62.4618 71.7539 62.4914 71.5761 62.5097C71.3973 62.5281 71.2351 62.537 71.0884 62.537Z" fill="#F7901E"/>
<path d="M74.0391 62.3993V55.3881H75.4389L75.6722 56.4174C75.69 56.3807 75.7389 56.3031 75.8167 56.1841C75.8944 56.0651 76.0111 55.9324 76.1666 55.7861C76.3221 55.6398 76.5166 55.5142 76.7488 55.4088C76.9821 55.3039 77.2643 55.2512 77.5931 55.2512C78.0686 55.2512 78.4553 55.3425 78.753 55.5255C79.0496 55.7085 79.2718 55.9644 79.4185 56.2937C79.564 56.623 79.6374 57.0073 79.6374 57.4462C79.6374 57.5469 79.6329 57.657 79.624 57.7755C79.6151 57.8945 79.6051 57.9999 79.5963 58.0912H78.032V57.8033C78.032 57.6292 77.9975 57.4533 77.9298 57.275C77.8609 57.0967 77.7509 56.948 77.5998 56.829C77.4487 56.71 77.2409 56.6507 76.9754 56.6507C76.7832 56.6507 76.6188 56.6917 76.4821 56.774C76.3444 56.8563 76.2322 56.9593 76.1455 57.0826C76.0588 57.2063 75.9944 57.3437 75.9533 57.4942C75.9122 57.6452 75.8922 57.7849 75.8922 57.9129V62.3993H74.0391Z" fill="#F7901E"/>
<path d="M82.533 62.5367C82.1586 62.5367 81.7997 62.475 81.4564 62.3513C81.1131 62.2281 80.832 62.022 80.6121 61.7341C80.3932 61.4457 80.2832 61.0548 80.2832 60.5609C80.2832 60.058 80.3954 59.6511 80.6187 59.3397C80.8431 59.0287 81.1587 58.7888 81.5664 58.6195C81.973 58.4501 82.4619 58.3339 83.034 58.2695C83.6062 58.2055 84.2483 58.1735 84.9616 58.1735V57.5563C84.9616 57.1536 84.8516 56.8681 84.6327 56.6987C84.4128 56.5294 84.0928 56.4447 83.6717 56.4447C83.3151 56.4447 83.0018 56.5247 82.7318 56.6851C82.4619 56.845 82.3274 57.0896 82.3274 57.4189V57.5285H80.5298C80.521 57.5013 80.5165 57.4622 80.5165 57.4119V57.2816C80.5165 56.8794 80.6443 56.5247 80.9009 56.2184C81.1565 55.9122 81.5131 55.6741 81.9708 55.5048C82.4285 55.3359 82.9585 55.2512 83.5617 55.2512H83.8506C84.8383 55.2512 85.5749 55.4455 86.0593 55.8341C86.5448 56.2231 86.787 56.7467 86.787 57.4053V60.8215C86.787 60.9956 86.8303 61.1188 86.917 61.1922C87.0036 61.2651 87.098 61.3018 87.198 61.3018C87.2802 61.3018 87.3725 61.2858 87.4725 61.2538C87.5736 61.2218 87.6691 61.1828 87.7613 61.1372V62.2346C87.6424 62.3264 87.4847 62.3993 87.2869 62.4543C87.0903 62.5094 86.8547 62.5367 86.5803 62.5367C86.2515 62.5367 85.977 62.484 85.7571 62.3791C85.5382 62.2737 85.3716 62.1297 85.2571 61.9468C85.1427 61.7638 85.0716 61.5535 85.0438 61.3154C84.7883 61.6814 84.4494 61.9764 84.0284 62.2008C83.6084 62.4247 83.1096 62.5367 82.533 62.5367ZM83.4118 61.3018C83.6673 61.3018 83.9117 61.2425 84.145 61.1235C84.3783 61.0045 84.5728 60.8286 84.7283 60.5952C84.8838 60.3619 84.9616 60.0716 84.9616 59.724V59.1614C84.3761 59.1614 83.8806 59.1981 83.4729 59.271C83.0663 59.3444 82.7574 59.4657 82.5474 59.6346C82.3363 59.804 82.2319 60.0486 82.2319 60.369C82.2319 60.7072 82.3341 60.9476 82.5396 61.0892C82.7463 61.2312 83.0362 61.3018 83.4118 61.3018Z" fill="#F7901E"/>
<path d="M91.0806 62.537C90.6873 62.537 90.3351 62.482 90.0241 62.3724C89.713 62.2628 89.4708 62.0774 89.2975 61.8168C89.123 61.5562 89.0364 61.2109 89.0364 60.7809V56.788H88.2676V55.3885H89.0919L89.7496 53.1521H90.9029V55.3885H92.5493V56.788H90.9029V60.3693C90.9029 60.7715 90.9851 61.0279 91.1495 61.1375C91.3139 61.2471 91.4928 61.3022 91.685 61.3022C91.785 61.3022 91.925 61.2815 92.1027 61.2405C92.2816 61.1991 92.426 61.1559 92.5349 61.1102V62.2628C92.416 62.3268 92.2705 62.3794 92.096 62.4204C91.9227 62.4618 91.7461 62.4914 91.5683 62.5097C91.3895 62.5281 91.2273 62.537 91.0806 62.537Z" fill="#F7901E"/>
<path d="M96.7056 62.5367C96.0468 62.5367 95.4646 62.4016 94.9569 62.1321C94.4492 61.8621 94.0537 61.4688 93.7693 60.9518C93.486 60.4353 93.3438 59.8063 93.3438 59.0654V58.7225C93.3438 57.9816 93.4926 57.3526 93.7904 56.8356C94.087 56.3191 94.4947 55.9258 95.0114 55.6558C95.528 55.3862 96.1157 55.2512 96.7745 55.2512H96.9945C97.6155 55.2512 98.1577 55.3768 98.6199 55.6285C99.082 55.8802 99.4387 56.2321 99.6898 56.6851C99.942 57.1376 100.067 57.6659 100.067 58.2695V59.1341H95.3202C95.3202 59.573 95.3746 59.9573 95.4846 60.2866C95.5946 60.6159 95.759 60.8676 95.979 61.0412C96.1979 61.2152 96.4868 61.3018 96.8434 61.3018C97.1356 61.3018 97.3922 61.2449 97.6111 61.1306C97.8311 61.0162 98.0044 60.8445 98.1333 60.6159C98.261 60.3873 98.3255 60.1083 98.3255 59.779H100.067C100.067 60.3186 99.9297 60.7966 99.6553 61.2129C99.3809 61.6287 99.0043 61.9538 98.5243 62.1867C98.0433 62.42 97.4878 62.5367 96.8567 62.5367H96.7056ZM95.3336 58.1735H98.2288C98.2288 57.5972 98.1033 57.1696 97.8511 56.8906C97.6 56.6117 97.2544 56.472 96.8156 56.472C96.4045 56.472 96.059 56.6164 95.7802 56.9043C95.5002 57.1927 95.3524 57.6156 95.3336 58.1735Z" fill="#F7901E"/>
<path d="M102.456 64.9791C102.136 64.9791 101.845 64.9034 101.585 64.7528C101.324 64.6018 101.114 64.3981 100.954 64.1422C100.794 63.8858 100.713 63.6069 100.713 63.3049C100.713 62.9666 100.805 62.6533 100.987 62.3654C101.171 62.0771 101.422 61.8597 101.743 61.7134C101.542 61.5855 101.384 61.4185 101.269 61.2129C101.155 61.0068 101.097 60.7895 101.097 60.5609C101.097 60.2227 101.207 59.9319 101.427 59.6897C101.646 59.4474 101.925 59.271 102.264 59.1614C101.981 58.9878 101.747 58.7728 101.564 58.5164C101.382 58.2605 101.289 57.9449 101.289 57.5699C101.289 57.1767 101.397 56.8013 101.612 56.4447C101.827 56.0881 102.152 55.7997 102.586 55.5805C103.02 55.3608 103.571 55.2512 104.239 55.2512C104.514 55.2512 104.77 55.2649 105.008 55.2922C105.246 55.3194 105.456 55.3655 105.639 55.4295C105.996 55.2371 106.259 55.0268 106.428 54.7982C106.597 54.5696 106.691 54.3457 106.709 54.126H108.178C108.178 54.4369 108.118 54.7159 107.999 54.9629C107.88 55.2098 107.713 55.4135 107.499 55.5735C107.283 55.7334 107.024 55.8501 106.723 55.9235L106.709 55.9644C106.929 56.1474 107.106 56.3624 107.238 56.6093C107.37 56.8563 107.437 57.1263 107.437 57.4189C107.437 57.8216 107.324 58.1918 107.1 58.5301C106.877 58.8688 106.561 59.1407 106.153 59.3467C105.747 59.5523 105.269 59.6553 104.72 59.6553H103.69C103.407 59.6553 103.188 59.7127 103.033 59.827C102.877 59.9413 102.799 60.0942 102.799 60.2866C102.799 60.4602 102.869 60.6065 103.012 60.7255C103.154 60.8446 103.379 60.9038 103.69 60.9038H106.119C106.76 60.9038 107.263 61.0915 107.629 61.4665C107.994 61.8414 108.178 62.3033 108.178 62.8523C108.178 63.2367 108.081 63.5909 107.89 63.9155C107.698 64.2405 107.43 64.4988 107.087 64.6907C106.743 64.8831 106.348 64.9791 105.9 64.9791H102.456ZM103.169 63.8129H105.543C105.79 63.8129 106.002 63.733 106.181 63.5725C106.359 63.4126 106.449 63.2183 106.449 62.9897C106.449 62.7794 106.373 62.6006 106.222 62.4543C106.071 62.308 105.881 62.2346 105.652 62.2346H103.169C102.932 62.2346 102.73 62.3127 102.566 62.468C102.4 62.6237 102.318 62.8067 102.318 63.017C102.318 63.2272 102.4 63.4126 102.566 63.5725C102.73 63.733 102.932 63.8129 103.169 63.8129ZM104.377 58.6265C104.779 58.6265 105.097 58.5122 105.33 58.2831C105.563 58.0545 105.68 57.7802 105.68 57.4599C105.68 57.14 105.563 56.8634 105.33 56.63C105.097 56.3967 104.779 56.28 104.377 56.28C103.975 56.28 103.655 56.3967 103.416 56.63C103.178 56.8634 103.059 57.14 103.059 57.4599C103.059 57.7802 103.178 58.0545 103.416 58.2831C103.655 58.5122 103.975 58.6265 104.377 58.6265Z" fill="#F7901E"/>
<path d="M109.317 62.3994V55.3882H111.196V62.3994H109.317ZM109.289 53.9751V52.5205H111.223V53.9751H109.289Z" fill="#F7901E"/>
<path d="M115.588 62.5367C114.994 62.5367 114.456 62.3904 113.976 62.0978C113.495 61.8052 113.118 61.4001 112.844 60.8836C112.569 60.3666 112.432 59.7743 112.432 59.1063V58.6811C112.432 58.1782 112.516 57.7186 112.686 57.3023C112.855 56.8859 113.086 56.5228 113.378 56.2114C113.672 55.9004 114.015 55.6628 114.408 55.4982C114.801 55.3335 115.221 55.2512 115.67 55.2512H115.93C116.543 55.2512 117.077 55.3721 117.529 55.6149C117.982 55.8571 118.33 56.1954 118.572 56.63C118.814 57.0647 118.935 57.5746 118.935 58.1598H117.302C117.302 57.7849 117.246 57.474 117.131 57.227C117.017 56.98 116.854 56.7923 116.645 56.6644C116.433 56.5364 116.182 56.472 115.889 56.472C115.469 56.472 115.117 56.6164 114.832 56.9043C114.549 57.1927 114.408 57.6156 114.408 58.1735V59.5866C114.408 60.1356 114.543 60.5585 114.812 60.8558C115.082 61.1532 115.446 61.3018 115.903 61.3018C116.223 61.3018 116.493 61.2468 116.712 61.1372C116.932 61.0275 117.099 60.8493 117.213 60.6023C117.328 60.3553 117.386 60.026 117.386 59.6144H118.935C118.935 60.2363 118.803 60.7646 118.538 61.1988C118.272 61.6334 117.907 61.9651 117.44 62.1937C116.973 62.4223 116.443 62.5367 115.848 62.5367H115.588Z" fill="#F7901E"/>
<path d="M125.986 62.3993V52.9871H129.718C130.258 52.9871 130.766 53.0717 131.241 53.2411C131.717 53.4104 132.136 53.6664 132.497 54.0093C132.859 54.3522 133.14 54.7822 133.341 55.2992C133.542 55.8157 133.643 56.4263 133.643 57.1305V58.0088C133.643 58.7041 133.542 59.3237 133.341 59.8679C133.14 60.4122 132.859 60.8718 132.497 61.2467C132.136 61.6221 131.717 61.9077 131.241 62.1043C130.766 62.3014 130.258 62.3993 129.718 62.3993H125.986ZM127.989 60.8629H129.554C129.929 60.8629 130.265 60.7782 130.563 60.6089C130.859 60.44 131.096 60.1765 131.269 59.82C131.442 59.4634 131.53 59.0014 131.53 58.4341V56.8012C131.53 56.2433 131.442 55.7978 131.269 55.4638C131.096 55.1298 130.859 54.8876 130.563 54.7366C130.265 54.5856 129.929 54.5103 129.554 54.5103H127.989V60.8629Z" fill="#F7901E"/>
<path d="M138.069 62.5367C137.41 62.5367 136.827 62.4016 136.319 62.1321C135.811 61.8621 135.416 61.4688 135.133 60.9518C134.849 60.4353 134.707 59.8063 134.707 59.0654V58.7225C134.707 57.9816 134.856 57.3526 135.153 56.8356C135.45 56.3191 135.857 55.9258 136.375 55.6558C136.891 55.3862 137.479 55.2512 138.138 55.2512H138.357C138.979 55.2512 139.521 55.3768 139.983 55.6285C140.444 55.8802 140.802 56.2321 141.053 56.6851C141.304 57.1376 141.431 57.6659 141.431 58.2695V59.1341H136.682C136.682 59.573 136.738 59.9573 136.848 60.2866C136.958 60.6159 137.122 60.8676 137.341 61.0412C137.561 61.2152 137.849 61.3018 138.206 61.3018C138.499 61.3018 138.754 61.2449 138.974 61.1306C139.193 61.0162 139.368 60.8445 139.495 60.6159C139.624 60.3873 139.688 60.1083 139.688 59.779H141.431C141.431 60.3186 141.293 60.7966 141.019 61.2129C140.744 61.6287 140.366 61.9538 139.886 62.1867C139.407 62.42 138.851 62.5367 138.22 62.5367H138.069ZM136.697 58.1735H139.592C139.592 57.5972 139.467 57.1696 139.214 56.8906C138.963 56.6117 138.618 56.472 138.179 56.472C137.767 56.472 137.421 56.6164 137.142 56.9043C136.863 57.1927 136.715 57.6156 136.697 58.1735Z" fill="#F7901E"/>
<path d="M144.434 62.3994L141.938 55.3882H143.941L145.532 60.2317H145.615L147.22 55.3882H149.045L146.52 62.3994H144.434Z" fill="#F7901E"/>
<path d="M152.795 62.5364C152.137 62.5364 151.553 62.4014 151.047 62.1319C150.538 61.8618 150.142 61.4686 149.859 60.9516C149.576 60.435 149.434 59.8061 149.434 59.0652V58.7222C149.434 57.9813 149.582 57.3524 149.88 56.8354C150.177 56.3188 150.585 55.9256 151.101 55.6555C151.618 55.386 152.206 55.251 152.864 55.251H153.083C153.705 55.251 154.248 55.3766 154.71 55.6283C155.172 55.8799 155.528 56.2318 155.78 56.6848C156.032 57.1374 156.157 57.6657 156.157 58.2692V59.1338H151.41C151.41 59.5728 151.464 59.9571 151.574 60.2864C151.684 60.6157 151.849 60.8674 152.068 61.0409C152.288 61.215 152.577 61.3016 152.933 61.3016C153.225 61.3016 153.482 61.2446 153.701 61.1303C153.921 61.016 154.094 60.8443 154.223 60.6157C154.351 60.3871 154.414 60.1081 154.414 59.7788H156.157C156.157 60.3184 156.02 60.7963 155.745 61.2126C155.471 61.6285 155.094 61.9536 154.614 62.1864C154.133 62.4197 153.578 62.5364 152.947 62.5364H152.795ZM151.423 58.1732H154.319C154.319 57.597 154.193 57.1694 153.941 56.8904C153.69 56.6114 153.344 56.4717 152.905 56.4717C152.493 56.4717 152.149 56.6161 151.869 56.904C151.59 57.1924 151.442 57.6153 151.423 58.1732Z" fill="#F7901E"/>
<path d="M159.177 52.5205H157.297V62.3994H159.177V52.5205Z" fill="#F7901E"/>
<path d="M163.666 62.5367C163.026 62.5367 162.451 62.3927 161.944 62.1043C161.436 61.8164 161.038 61.4072 160.751 60.8765C160.463 60.3459 160.318 59.724 160.318 59.0104V58.7634C160.318 58.0408 160.463 57.4189 160.751 56.8977C161.038 56.376 161.434 55.9714 161.937 55.6831C162.44 55.3952 163.013 55.2512 163.652 55.2512H163.927C164.577 55.2512 165.152 55.3952 165.656 55.6831C166.159 55.9714 166.554 56.376 166.842 56.8977C167.131 57.4189 167.274 58.0408 167.274 58.7634V59.0104C167.274 59.7334 167.131 60.3577 166.842 60.8836C166.554 61.4095 166.159 61.8164 165.656 62.1043C165.152 62.3927 164.581 62.5367 163.94 62.5367H163.666ZM163.79 61.3018C164.074 61.3018 164.327 61.2355 164.551 61.1028C164.776 60.9702 164.953 60.7712 165.087 60.5058C165.219 60.241 165.286 59.9253 165.286 59.5594V58.2149C165.286 57.84 165.219 57.5243 165.087 57.2679C164.953 57.012 164.776 56.8154 164.551 56.678C164.327 56.5407 164.074 56.472 163.79 56.472C163.515 56.472 163.264 56.5407 163.035 56.678C162.806 56.8154 162.626 57.012 162.493 57.2679C162.36 57.5243 162.294 57.84 162.294 58.2149V59.5594C162.294 59.9253 162.36 60.241 162.493 60.5058C162.626 60.7712 162.806 60.9702 163.035 61.1028C163.264 61.2355 163.515 61.3018 163.79 61.3018Z" fill="#F7901E"/>
<path d="M168.467 64.8831V55.3881H169.934L170.14 56.2937C170.351 55.9921 170.632 55.7428 170.984 55.5462C171.336 55.3495 171.75 55.2512 172.225 55.2512C172.765 55.2512 173.253 55.3679 173.687 55.6007C174.122 55.8341 174.465 56.2071 174.716 56.7189C174.967 57.2312 175.094 57.9039 175.094 58.7361V59.024C175.094 59.7927 174.969 60.44 174.723 60.9659C174.476 61.4918 174.142 61.8851 173.722 62.1457C173.301 62.4064 172.839 62.5367 172.335 62.5367C171.851 62.5367 171.444 62.4454 171.114 62.2624C170.785 62.0794 170.533 61.8461 170.36 61.5624V64.8831H168.467ZM171.745 61.2882C172.011 61.2882 172.246 61.2195 172.452 61.0821C172.659 60.9452 172.821 60.7486 172.94 60.4922C173.059 60.2363 173.117 59.9206 173.117 59.5457V58.3245C173.117 57.9039 173.059 57.5586 172.94 57.2886C172.821 57.0186 172.659 56.8177 172.452 56.6851C172.246 56.5524 172.011 56.4861 171.745 56.4861C171.499 56.4861 171.268 56.5501 171.053 56.678C170.838 56.806 170.667 57.0026 170.538 57.2679C170.41 57.5332 170.347 57.8809 170.347 58.3109V59.5457C170.347 59.9206 170.408 60.2386 170.531 60.4993C170.654 60.7599 170.824 60.9565 171.039 61.0892C171.254 61.2218 171.49 61.2882 171.745 61.2882Z" fill="#F7901E"/>
<path d="M176.324 62.399V55.3879H177.723L177.971 56.4172C178.208 56.0512 178.49 55.7652 178.814 55.5596C179.138 55.3535 179.534 55.251 180 55.251C180.458 55.251 180.86 55.3375 181.208 55.5116C181.556 55.6852 181.83 55.9736 182.031 56.3758C182.251 56.0102 182.535 55.7308 182.882 55.5389C183.23 55.3469 183.641 55.251 184.117 55.251C184.566 55.251 184.961 55.3422 185.303 55.5252C185.647 55.7082 185.914 55.9688 186.106 56.3071C186.299 56.6458 186.394 57.0574 186.394 57.5419V62.399H184.542V57.9677C184.542 57.5104 184.447 57.1764 184.254 56.9657C184.062 56.7554 183.797 56.6505 183.458 56.6505C183.239 56.6505 183.04 56.7074 182.861 56.8217C182.684 56.936 182.544 57.0964 182.442 57.302C182.342 57.5081 182.292 57.7433 182.292 58.0086V62.399H180.439V57.9677C180.439 57.5104 180.344 57.1764 180.152 56.9657C179.959 56.7554 179.689 56.6505 179.343 56.6505C179.123 56.6505 178.926 56.7074 178.752 56.8217C178.578 56.936 178.441 57.0964 178.341 57.302C178.24 57.5081 178.19 57.7433 178.19 58.0086V62.399H176.324Z" fill="#F7901E"/>
<path d="M190.985 62.5367C190.326 62.5367 189.743 62.4016 189.235 62.1321C188.727 61.8621 188.332 61.4688 188.049 60.9518C187.765 60.4353 187.623 59.8063 187.623 59.0654V58.7225C187.623 57.9816 187.772 57.3526 188.07 56.8356C188.366 56.3191 188.773 55.9258 189.291 55.6558C189.807 55.3862 190.395 55.2512 191.054 55.2512H191.273C191.895 55.2512 192.437 55.3768 192.899 55.6285C193.36 55.8802 193.718 56.2321 193.969 56.6851C194.221 57.1376 194.347 57.6659 194.347 58.2695V59.1341H189.6C189.6 59.573 189.654 59.9573 189.764 60.2866C189.874 60.6159 190.038 60.8676 190.257 61.0412C190.477 61.2152 190.765 61.3018 191.122 61.3018C191.415 61.3018 191.67 61.2449 191.89 61.1306C192.11 61.0162 192.284 60.8445 192.411 60.6159C192.54 60.3873 192.604 60.1083 192.604 59.779H194.347C194.347 60.3186 194.209 60.7966 193.935 61.2129C193.66 61.6287 193.284 61.9538 192.802 62.1867C192.323 62.42 191.767 62.5367 191.136 62.5367H190.985ZM189.613 58.1735H192.508C192.508 57.5972 192.383 57.1696 192.13 56.8906C191.879 56.6117 191.534 56.472 191.095 56.472C190.683 56.472 190.337 56.6164 190.058 56.9043C189.779 57.1927 189.631 57.6156 189.613 58.1735Z" fill="#F7901E"/>
<path d="M195.576 62.3993V55.3881H196.962L197.182 56.4174C197.456 56.0241 197.787 55.7311 198.176 55.5391C198.565 55.3472 199.006 55.2512 199.5 55.2512C199.976 55.2512 200.395 55.3425 200.756 55.5255C201.117 55.7085 201.396 55.9691 201.592 56.3073C201.789 56.646 201.888 57.0576 201.888 57.5422V62.3993H200.021V57.9402C200.021 57.4923 199.911 57.163 199.692 56.9523C199.472 56.742 199.176 56.6366 198.8 56.6366C198.563 56.6366 198.338 56.6987 198.128 56.822C197.918 56.9457 197.753 57.1127 197.634 57.323C197.515 57.5332 197.456 57.7713 197.456 58.0361V62.3993H195.576Z" fill="#F7901E"/>
<path d="M205.93 62.537C205.537 62.537 205.185 62.482 204.874 62.3724C204.563 62.2628 204.32 62.0774 204.146 61.8168C203.973 61.5562 203.885 61.2109 203.885 60.7809V56.788H203.117V55.3885H203.94L204.599 53.1521H205.751V55.3885H207.398V56.788H205.751V60.3693C205.751 60.7715 205.834 61.0279 205.998 61.1375C206.164 61.2471 206.341 61.3022 206.533 61.3022C206.635 61.3022 206.773 61.2815 206.952 61.2405C207.13 61.1991 207.275 61.1559 207.385 61.1102V62.2628C207.266 62.3268 207.119 62.3794 206.946 62.4204C206.771 62.4618 206.596 62.4914 206.417 62.5097C206.239 62.5281 206.076 62.537 205.93 62.537Z" fill="#F7901E"/>
</svg>
