<svg width="493" height="493" viewBox="0 0 493 493" fill="none" xmlns="http://www.w3.org/2000/svg">
<path d="M218.891 457.213C220.055 457.368 221.16 457.65 222.209 458.059C223.257 458.468 224.104 458.93 224.748 459.447L222.786 462.656C222.177 462.184 221.485 461.776 220.71 461.43C219.921 461.096 219.143 460.878 218.376 460.776C217.927 460.716 217.573 460.696 217.315 460.715C217.042 460.746 216.839 460.807 216.706 460.897C216.571 461 216.493 461.13 216.472 461.289C216.438 461.54 216.55 461.757 216.809 461.939C217.067 462.122 217.421 462.29 217.871 462.444C218.307 462.61 218.788 462.782 219.316 462.96C219.842 463.151 220.37 463.376 220.9 463.635C221.418 463.892 221.887 464.204 222.309 464.569C222.718 464.933 223.029 465.378 223.241 465.904C223.452 466.443 223.508 467.083 223.409 467.823C223.294 468.682 222.953 469.43 222.383 470.067C221.799 470.716 221.003 471.188 219.995 471.484C218.974 471.778 217.75 471.83 216.322 471.64C215.384 471.515 214.472 471.293 213.587 470.973C212.701 470.653 211.922 470.24 211.25 469.733L213.109 466.531C213.751 466.966 214.384 467.313 215.009 467.571C215.62 467.827 216.23 467.996 216.838 468.077C217.287 468.137 217.649 468.145 217.924 468.101C218.199 468.057 218.405 467.976 218.541 467.86C218.665 467.742 218.737 467.604 218.758 467.445C218.79 467.207 218.677 466.997 218.418 466.815C218.159 466.646 217.81 466.485 217.373 466.332C216.923 466.178 216.434 466.012 215.906 465.834C215.365 465.654 214.836 465.436 214.319 465.179C213.802 464.921 213.339 464.611 212.93 464.247C212.508 463.881 212.19 463.435 211.978 462.909C211.766 462.383 211.708 461.757 211.805 461.03C211.918 460.184 212.266 459.437 212.85 458.789C213.419 458.152 214.209 457.678 215.219 457.369C216.227 457.073 217.451 457.021 218.891 457.213Z" fill="#F7901E"/>
<path d="M198.439 453.522C199.531 453.77 200.507 454.17 201.366 454.72C202.209 455.281 202.903 455.959 203.447 456.752C203.979 457.543 204.334 458.417 204.513 459.374C204.692 460.331 204.662 461.336 204.422 462.389C204.183 463.442 203.776 464.361 203.201 465.146C202.626 465.932 201.928 466.566 201.107 467.05C200.273 467.53 199.356 467.834 198.356 467.963C197.34 468.101 196.286 468.046 195.194 467.798C193.855 467.493 192.725 466.99 191.804 466.289C190.87 465.584 190.166 464.713 189.691 463.675L193.186 461.742C193.474 462.341 193.834 462.833 194.266 463.218C194.682 463.613 195.196 463.881 195.807 464.02C196.288 464.129 196.741 464.15 197.166 464.083C197.592 464.015 197.982 463.864 198.336 463.63C198.677 463.393 198.974 463.078 199.228 462.685C199.478 462.304 199.663 461.854 199.781 461.334C199.899 460.814 199.929 460.321 199.87 459.857C199.809 459.405 199.676 458.999 199.471 458.638C199.253 458.274 198.966 457.969 198.612 457.725C198.257 457.48 197.839 457.303 197.358 457.194C196.747 457.055 196.17 457.067 195.627 457.231C195.068 457.405 194.529 457.699 194.011 458.115L191.694 454.86C192.569 454.143 193.58 453.662 194.73 453.417C195.863 453.183 197.1 453.217 198.439 453.522Z" fill="#F7901E"/>
<path d="M186.199 450.729L181.838 464.032L175.433 461.933C174.191 461.526 173.187 460.972 172.421 460.271C171.641 459.567 171.129 458.754 170.884 457.831C170.635 456.922 170.679 455.954 171.016 454.928C171.352 453.901 171.89 453.096 172.629 452.51C173.364 451.937 174.252 451.604 175.293 451.51C176.321 451.412 177.456 451.567 178.698 451.974L182.613 453.258L180.013 454.447L181.714 449.259L186.199 450.729ZM178.236 448.118L179.916 454.036L175.165 452.479L173.447 446.548L178.236 448.118ZM180.175 453.953L181.504 456.641L177.874 455.45C177.253 455.247 176.751 455.237 176.369 455.42C175.973 455.599 175.697 455.929 175.539 456.411C175.381 456.892 175.408 457.322 175.621 457.7C175.821 458.075 176.231 458.364 176.852 458.567L180.482 459.757L177.82 461.137L180.175 453.953Z" fill="#F7901E"/>
<path d="M160.902 441.032C161.939 441.488 162.83 442.078 163.576 442.799C164.31 443.516 164.868 444.315 165.252 445.198C165.63 446.093 165.822 447.03 165.828 448.009C165.822 448.982 165.606 449.951 165.182 450.915C164.752 451.891 164.183 452.704 163.474 453.353C162.748 454.01 161.93 454.494 161.02 454.808C160.105 455.133 159.135 455.267 158.112 455.21C157.076 455.147 156.039 454.887 155.002 454.43C153.953 453.968 153.061 453.379 152.328 452.663C151.594 451.946 151.038 451.141 150.66 450.246C150.277 449.363 150.088 448.435 150.094 447.462C150.083 446.495 150.292 445.524 150.722 444.547C151.146 443.583 151.722 442.773 152.448 442.117C153.162 441.455 153.976 440.962 154.892 440.636C155.802 440.323 156.768 440.195 157.792 440.253C158.816 440.31 159.852 440.57 160.902 441.032ZM159.362 444.528C158.96 444.351 158.555 444.26 158.149 444.256C157.731 444.246 157.334 444.32 156.96 444.475C156.568 444.638 156.213 444.882 155.894 445.208C155.57 445.546 155.298 445.965 155.078 446.466C154.858 446.966 154.735 447.444 154.709 447.899C154.679 448.366 154.738 448.793 154.888 449.179C155.021 449.573 155.232 449.921 155.522 450.223C155.799 450.52 156.139 450.757 156.541 450.934C156.944 451.112 157.355 451.205 157.773 451.214C158.179 451.218 158.578 451.139 158.97 450.977C159.345 450.821 159.694 450.574 160.018 450.236C160.336 449.91 160.605 449.497 160.826 448.996C161.046 448.496 161.172 448.012 161.202 447.545C161.228 447.09 161.174 446.666 161.042 446.273C160.891 445.886 160.678 445.544 160.4 445.247C160.111 444.945 159.765 444.705 159.362 444.528Z" fill="#F7901E"/>
<path d="M147.72 435.114L140.909 447.346L136.785 445.049L141.816 436.015L136.294 432.941L138.075 429.743L147.72 435.114Z" fill="#F7901E"/>
<path d="M132.302 426.188L124.489 437.805L120.572 435.171L126.343 426.591L121.098 423.064L123.141 420.026L132.302 426.188Z" fill="#F7901E"/>
<path d="M106.923 407.169L100.03 414.877L103.086 417.61L100.647 420.338L91.0162 411.725L93.4561 408.997L96.5122 411.73L103.405 404.023L106.923 407.169Z" fill="#F7901E"/>
<path d="M90.6173 390.859C91.3861 391.692 91.9683 392.588 92.364 393.547C92.7507 394.497 92.9437 395.453 92.943 396.415C92.9325 397.387 92.7347 398.323 92.3497 399.222C91.9556 400.112 91.3715 400.915 90.5976 401.629C89.8138 402.353 88.9675 402.871 88.0586 403.184C87.1309 403.496 86.1874 403.614 85.228 403.538C84.2588 403.471 83.3163 403.207 82.4006 402.746C81.4759 402.275 80.6291 401.623 79.8604 400.79C79.0825 399.947 78.5003 399.051 78.1136 398.102C77.727 397.152 77.5389 396.192 77.5494 395.22C77.5501 394.258 77.7475 393.332 78.1416 392.442C78.5168 391.551 79.0963 390.744 79.8801 390.02C80.654 389.306 81.5049 388.792 82.4326 388.48C83.3513 388.158 84.2952 388.031 85.2644 388.098C86.2238 388.174 87.1613 388.443 88.077 388.904C88.9927 389.365 89.8395 390.017 90.6173 390.859ZM87.8105 393.451C87.512 393.127 87.1774 392.883 86.8066 392.717C86.4268 392.541 86.0341 392.45 85.6286 392.443C85.2043 392.436 84.7812 392.518 84.3591 392.69C83.9273 392.871 83.5106 393.147 83.1089 393.517C82.7072 393.888 82.4039 394.277 82.1989 394.684C81.9842 395.1 81.8685 395.515 81.852 395.93C81.8166 396.344 81.8712 396.747 82.0159 397.14C82.1516 397.522 82.3687 397.875 82.6672 398.199C82.9656 398.522 83.3048 398.772 83.6846 398.947C84.0554 399.113 84.453 399.2 84.8773 399.207C85.2827 399.214 85.7014 399.127 86.1332 398.946C86.5552 398.774 86.9671 398.503 87.3688 398.132C87.7704 397.761 88.0786 397.368 88.2934 396.952C88.4984 396.545 88.6186 396.134 88.654 395.72C88.6705 395.306 88.611 394.907 88.4753 394.524C88.3306 394.132 88.109 393.774 87.8105 393.451Z" fill="#F7901E"/>
<path d="M64.5733 372.916L61.0575 367.761L63.8665 365.845L67.3823 371L64.5733 372.916ZM68.7221 369.699L64.7782 363.916L67.7193 361.91L74.2776 371.527L62.7112 379.415L56.2994 370.013L59.2406 368.007L63.0381 373.576L68.7221 369.699Z" fill="#F7901E"/>
<path d="M64.5514 356.975L53.9006 355.735L56.7981 354.156L52.2133 363.594L49.6481 358.956L52.4948 353.359L53.6061 355.327L47.3733 354.843L44.9146 350.398L55.1885 351.618L52.3183 353.205L57.0204 343.359L59.634 348.085L56.5773 353.798L55.5047 351.9L61.9475 352.267L64.5514 356.975Z" fill="#F7901E"/>
<path d="M54.1776 337.472L41.3356 343.047L38.6515 336.865C38.1312 335.666 37.8782 334.548 37.8926 333.509C37.9017 332.459 38.1696 331.536 38.6963 330.74C39.2109 329.95 39.9635 329.34 40.9541 328.91C41.9448 328.48 42.9045 328.346 43.8332 328.51C44.7618 328.674 45.6191 329.108 46.405 329.814C47.1734 330.512 47.8177 331.461 48.3381 332.659L49.9788 336.439L47.2896 335.317L52.298 333.142L54.1776 337.472ZM47.7666 335.11L46.6399 337.888L45.1186 334.384C44.8585 333.785 44.5328 333.403 44.1416 333.238C43.7451 333.062 43.3144 333.074 42.8497 333.276C42.3849 333.478 42.0817 333.784 41.9401 334.194C41.7931 334.592 41.8498 335.091 42.1099 335.69L43.6312 339.194L40.8319 338.12L47.7666 335.11Z" fill="#F7901E"/>
<path d="M46.6214 319.166L33.3362 323.582L31.8473 319.103L41.6593 315.841L39.6656 309.844L43.1387 308.689L46.6214 319.166Z" fill="#F7901E"/>
<path d="M39.8863 294.979C40.1421 296.083 40.2045 297.15 40.0734 298.18C39.9394 299.196 39.6338 300.122 39.1568 300.958C38.6668 301.797 38.0318 302.512 37.2518 303.103C36.4688 303.682 35.5642 304.09 34.538 304.327C33.4989 304.568 32.507 304.599 31.5625 304.421C30.6019 304.233 29.7237 303.869 28.9277 303.328C28.1188 302.79 27.4306 302.094 26.8632 301.24C26.2929 300.373 25.8798 299.387 25.624 298.283C25.3652 297.166 25.3029 296.099 25.437 295.083C25.571 294.066 25.883 293.139 26.373 292.3C26.85 291.464 27.48 290.757 28.2631 290.179C29.0301 289.59 29.9332 289.176 30.9723 288.935C31.9985 288.697 32.9918 288.672 33.9524 288.861C34.9099 289.036 35.7932 289.392 36.6021 289.93C37.3981 290.471 38.0798 291.169 38.6471 292.023C39.2145 292.877 39.6276 293.862 39.8863 294.979ZM36.1649 295.841C36.0656 295.413 35.8959 295.035 35.6558 294.707C35.4126 294.366 35.1166 294.093 34.7676 293.886C34.4027 293.67 33.9943 293.532 33.5425 293.472C33.0778 293.415 32.5791 293.449 32.0466 293.572C31.514 293.696 31.0579 293.883 30.6784 294.136C30.2858 294.391 29.9798 294.694 29.7602 295.046C29.5247 295.388 29.3726 295.766 29.304 296.178C29.2323 296.578 29.2462 296.992 29.3455 297.421C29.4448 297.85 29.616 298.234 29.8591 298.575C30.0993 298.903 30.4018 299.175 30.7667 299.391C31.1157 299.598 31.5226 299.729 31.9873 299.786C32.4391 299.845 32.9313 299.814 33.4638 299.69C33.9964 299.567 34.4589 299.378 34.8515 299.122C35.231 298.87 35.5386 298.573 35.7741 298.231C35.9937 297.879 36.1393 297.503 36.2109 297.104C36.2795 296.691 36.2642 296.27 36.1649 295.841Z" fill="#F7901E"/>
<path d="M36.7009 280.893L22.8184 282.704L21.9469 276.02C21.7779 274.724 21.8438 273.58 22.1445 272.586C22.4434 271.579 22.9559 270.766 23.682 270.146C24.3948 269.529 25.2867 269.151 26.3576 269.011C27.4285 268.871 28.3876 269.008 29.2349 269.422C30.069 269.838 30.7531 270.495 31.2871 271.393C31.8193 272.279 32.1699 273.369 32.3389 274.665L32.8717 278.75L30.6764 276.919L36.0906 276.213L36.7009 280.893ZM35.6173 272.584L31.0049 276.654L30.3584 271.696L34.9656 267.586L35.6173 272.584ZM31.192 276.852L29.3415 279.211L28.8476 275.423C28.7631 274.775 28.5556 274.318 28.2251 274.052C27.8928 273.772 27.4755 273.665 26.9731 273.731C26.4707 273.796 26.0947 274.007 25.8452 274.362C25.594 274.704 25.5106 275.199 25.5951 275.847L26.0891 279.635L23.6955 277.829L31.192 276.852Z" fill="#F7901E"/>
<path d="M25.5221 257.24L25.2807 251.005L28.6782 250.873L28.9196 257.109L25.5221 257.24ZM30.7458 256.718L30.475 249.723L34.0323 249.585L34.4827 261.217L20.4932 261.758L20.0529 250.387L23.6102 250.249L23.871 256.984L30.7458 256.718Z" fill="#F7901E"/>
<path d="M35.4382 226.377C35.3196 227.545 35.0723 228.659 34.6965 229.72C34.3207 230.78 33.8848 231.641 33.3889 232.301L30.1202 230.441C30.5723 229.817 30.9588 229.112 31.2798 228.327C31.5888 227.528 31.7825 226.743 31.8606 225.974C31.9065 225.523 31.9157 225.169 31.8882 224.911C31.8488 224.639 31.7821 224.438 31.6882 224.308C31.5809 224.176 31.4477 224.102 31.2885 224.086C31.0365 224.061 30.8233 224.18 30.6491 224.443C30.4749 224.707 30.3178 225.067 30.1778 225.521C30.0258 225.962 29.8691 226.448 29.7078 226.981C29.5331 227.513 29.3246 228.048 29.0823 228.586C28.8414 229.111 28.5447 229.59 28.1925 230.024C27.8415 230.444 27.4065 230.768 26.8874 230.997C26.355 231.224 25.7174 231.3 24.9746 231.225C24.1124 231.137 23.354 230.819 22.6995 230.27C22.033 229.706 21.5361 228.925 21.2086 227.927C20.8825 226.916 20.7923 225.694 20.9378 224.261C21.0335 223.319 21.2274 222.401 21.5193 221.506C21.8113 220.61 22.2 219.819 22.6853 219.131L25.9443 220.89C25.5293 221.544 25.2025 222.188 24.9641 222.82C24.7269 223.44 24.5774 224.054 24.5154 224.665C24.4695 225.116 24.4729 225.478 24.5256 225.751C24.5782 226.025 24.6648 226.228 24.7853 226.361C24.9072 226.48 25.0477 226.548 25.2069 226.564C25.4456 226.588 25.6521 226.469 25.8264 226.205C25.9873 225.94 26.1371 225.587 26.2758 225.145C26.4158 224.69 26.5665 224.196 26.7279 223.663C26.8906 223.117 27.0925 222.581 27.3335 222.056C27.5744 221.531 27.8704 221.059 28.2213 220.639C28.5736 220.205 29.0093 219.874 29.5284 219.646C30.0475 219.417 30.6718 219.34 31.4014 219.414C32.2504 219.5 33.0081 219.825 33.6745 220.389C34.329 220.938 34.8267 221.712 35.1674 222.711C35.4948 223.71 35.5851 224.932 35.4382 226.377Z" fill="#F7901E"/>
<path d="M38.487 205.82C38.273 206.919 37.9042 207.907 37.3805 208.783C36.8463 209.644 36.191 210.358 35.4147 210.927C34.6409 211.483 33.7787 211.865 32.8279 212.074C31.8772 212.283 30.8718 212.284 29.8117 212.078C28.7515 211.871 27.82 211.493 27.017 210.943C26.214 210.393 25.558 209.715 25.0492 208.91C24.5429 208.091 24.2101 207.184 24.0506 206.189C23.8807 205.178 23.9027 204.122 24.1166 203.023C24.379 201.675 24.8464 200.53 25.5188 199.588C26.1937 198.632 27.0424 197.901 28.0649 197.394L30.1065 200.827C29.5171 201.133 29.0366 201.508 28.665 201.952C28.2828 202.38 28.0319 202.902 27.9121 203.517C27.8179 204.001 27.8111 204.455 27.8917 204.878C27.9723 205.302 28.1352 205.686 28.3801 206.033C28.6277 206.366 28.9521 206.654 29.3534 206.895C29.7417 207.133 30.1975 207.304 30.721 207.405C31.2445 207.507 31.7375 207.522 32.2 207.449C32.6494 207.373 33.0513 207.227 33.4058 207.011C33.7629 206.782 34.0581 206.486 34.2916 206.124C34.5251 205.762 34.689 205.339 34.7832 204.854C34.9029 204.239 34.8725 203.663 34.6919 203.125C34.5008 202.572 34.1895 202.043 33.758 201.538L36.9383 199.121C37.6828 199.972 38.1952 200.968 38.4757 202.109C38.7456 203.235 38.7494 204.472 38.487 205.82Z" fill="#F7901E"/>
<path d="M40.8956 193.499L27.4624 189.556L29.3609 183.089C29.7289 181.835 30.2509 180.814 30.927 180.026C31.6068 179.225 32.4037 178.687 33.3178 178.414C34.2191 178.137 35.1879 178.15 36.2241 178.454C37.2604 178.758 38.0827 179.271 38.6911 179.991C39.2866 180.708 39.6475 181.585 39.7737 182.623C39.9036 183.647 39.7846 184.787 39.4165 186.04L38.2561 189.994L36.9861 187.432L42.2251 188.97L40.8956 193.499ZM43.256 185.458L37.3935 187.323L38.8019 182.525L44.6756 180.622L43.256 185.458ZM37.4851 187.579L34.8402 188.991L35.9162 185.326C36.1002 184.699 36.0947 184.197 35.8996 183.82C35.7083 183.43 35.3695 183.164 34.8834 183.021C34.3972 182.879 33.9684 182.92 33.5968 183.144C33.2289 183.356 32.953 183.775 32.769 184.402L31.693 188.067L30.2312 185.449L37.4851 187.579Z" fill="#F7901E"/>
<path d="M49.7985 167.91C49.3745 168.961 48.8134 169.87 48.1154 170.638C47.4223 171.394 46.6407 171.977 45.7704 172.388C44.8877 172.794 43.9573 173.015 42.9792 173.052C42.0061 173.076 41.0311 172.891 40.0543 172.497C39.0651 172.098 38.2348 171.555 37.5635 170.867C36.8847 170.161 36.3746 169.359 36.0331 168.459C35.6793 167.554 35.515 166.59 35.5404 165.565C35.5707 164.527 35.7979 163.483 36.222 162.432C36.651 161.369 37.2121 160.459 37.9051 159.704C38.5982 158.948 39.3861 158.367 40.2687 157.961C41.139 157.551 42.0607 157.333 43.0338 157.309C43.9996 157.267 44.977 157.446 45.9662 157.845C46.943 158.239 47.7708 158.789 48.4496 159.494C49.1334 160.187 49.6522 160.985 50.006 161.89C50.3474 162.79 50.5055 163.752 50.4801 164.777C50.4548 165.802 50.2276 166.847 49.7985 167.91ZM46.256 166.481C46.4207 166.073 46.4986 165.665 46.49 165.259C46.4863 164.841 46.4008 164.447 46.2335 164.078C46.0589 163.691 45.8037 163.343 45.4679 163.035C45.1197 162.722 44.6921 162.464 44.1852 162.259C43.6782 162.054 43.197 161.947 42.7414 161.935C42.2735 161.919 41.8487 161.992 41.4669 162.154C41.0777 162.299 40.7366 162.521 40.4436 162.82C40.1555 163.106 39.9291 163.453 39.7645 163.861C39.5999 164.269 39.5194 164.683 39.5231 165.101C39.5318 165.507 39.6235 165.904 39.7981 166.29C39.9653 166.66 40.2231 167.001 40.5712 167.314C40.907 167.622 41.3284 167.878 41.8354 168.083C42.3423 168.287 42.8298 168.398 43.2977 168.414C43.7532 168.425 44.1756 168.359 44.5647 168.214C44.9465 168.051 45.2814 167.827 45.5695 167.541C45.8625 167.242 46.0914 166.889 46.256 166.481Z" fill="#F7901E"/>
<path d="M55.3005 154.549L42.862 148.124L45.0282 143.93L54.215 148.676L57.1155 143.06L60.3673 144.74L55.3005 154.549Z" fill="#F7901E"/>
<path d="M63.7392 138.859L51.8835 131.414L54.3938 127.416L63.1501 132.916L66.5114 127.564L69.6108 129.51L63.7392 138.859Z" fill="#F7901E"/>
<path d="M81.956 112.899L74.037 106.251L71.4007 109.391L68.5976 107.037L76.9051 97.1425L79.7082 99.4958L77.0719 102.636L84.991 109.284L81.956 112.899Z" fill="#F7901E"/>
<path d="M97.7468 96.0895C96.9386 96.8839 96.0612 97.4939 95.1146 97.9195C94.1776 98.3356 93.2281 98.5584 92.2662 98.5878C91.2949 98.6077 90.3535 98.4393 89.442 98.0826C88.5401 97.7165 87.7199 97.1578 86.9815 96.4066C86.2338 95.6459 85.6894 94.8162 85.3484 93.9175C85.0074 93 84.86 92.0606 84.906 91.0993C84.9427 90.1285 85.1772 89.1783 85.6095 88.2486C86.0513 87.3096 86.6764 86.4428 87.4846 85.6484C88.3024 84.8446 89.1798 84.2346 90.1169 83.8185C91.0539 83.4023 92.008 83.1842 92.9793 83.1643C93.9413 83.1349 94.8732 83.3033 95.7752 83.6694C96.6773 84.0166 97.5023 84.5706 98.25 85.3313C98.9883 86.0825 99.528 86.9169 99.8689 87.8344C100.219 88.7425 100.376 89.682 100.34 90.6528C100.293 91.6142 100.054 92.5596 99.622 93.4893C99.1897 94.419 98.5646 95.2857 97.7468 96.0895ZM95.0691 93.3651C95.3829 93.0567 95.6169 92.7146 95.771 92.3388C95.9346 91.9536 96.0135 91.5583 96.0075 91.1528C96.0018 90.7285 95.9064 90.3081 95.7214 89.8917C95.5271 89.4657 95.2384 89.0578 94.8552 88.6679C94.472 88.278 94.0738 87.987 93.6606 87.7949C93.238 87.5932 92.8194 87.4906 92.4045 87.487C91.9899 87.4646 91.5886 87.5318 91.2007 87.6888C90.8223 87.8363 90.4762 88.0644 90.1624 88.3728C89.8485 88.6812 89.6098 89.028 89.4462 89.4132C89.2921 89.789 89.218 90.189 89.2237 90.6134C89.2296 91.0188 89.3298 91.4345 89.5241 91.8605C89.709 92.277 89.9931 92.6801 90.3763 93.07C90.7595 93.4599 91.1624 93.7556 91.5849 93.9573C91.9981 94.1494 92.412 94.2567 92.8267 94.2792C93.2415 94.2827 93.6381 94.2107 94.0166 94.0632C94.4045 93.9062 94.7553 93.6735 95.0691 93.3651Z" fill="#F7901E"/>
<path d="M114.867 69.4989L119.91 65.8236L121.913 68.5713L116.87 72.2466L114.867 69.4989ZM118.212 73.5451L123.869 69.4222L125.966 72.2992L116.559 79.155L108.313 67.841L117.51 61.1383L119.607 64.0153L114.16 67.9851L118.212 73.5451Z" fill="#F7901E"/>
<path d="M130.799 68.9778L131.705 58.2935L133.374 61.14L123.797 56.8527L128.353 54.1437L134.036 56.814L132.104 57.9863L132.392 51.7414L136.759 49.1449L135.861 59.4519L134.184 56.6328L144.172 61.0246L139.531 63.7847L133.725 60.9082L135.589 59.7767L135.423 66.2279L130.799 68.9778Z" fill="#F7901E"/>
<path d="M149.969 57.9996L143.995 45.3382L150.09 42.4621C151.272 41.9045 152.382 41.6167 153.42 41.5986C154.47 41.5748 155.401 41.8137 156.213 42.3154C157.019 42.8049 157.652 43.5381 158.113 44.5148C158.574 45.4915 158.737 46.4466 158.603 47.3799C158.468 48.3133 158.061 49.1837 157.38 49.9913C156.706 50.7811 155.778 51.4548 154.596 52.0124L150.87 53.7705L151.908 51.0475L154.237 55.9855L149.969 57.9996ZM152.129 51.5178L149.317 50.4785L152.772 48.8485C153.363 48.5697 153.734 48.2322 153.886 47.8361C154.051 47.4342 154.025 47.0042 153.808 46.546C153.592 46.0878 153.277 45.7943 152.862 45.6655C152.46 45.5311 151.963 45.6033 151.372 45.8821L147.917 47.5122L148.903 44.6807L152.129 51.5178Z" fill="#F7901E"/>
<path d="M168.029 49.8739L163.199 36.7334L167.629 35.105L171.197 44.8102L177.129 42.6299L178.391 46.0652L168.029 49.8739Z" fill="#F7901E"/>
<path d="M191.994 42.3867C190.898 42.6768 189.834 42.7725 188.801 42.6737C187.78 42.5715 186.845 42.2951 185.995 41.8445C185.141 41.381 184.406 40.7687 183.791 40.0075C183.188 39.243 182.752 38.3516 182.483 37.3333C182.21 36.3022 182.147 35.3118 182.296 34.3622C182.454 33.3962 182.791 32.507 183.306 31.6945C183.819 30.8691 184.493 30.1595 185.329 29.5657C186.178 28.9685 187.15 28.5248 188.245 28.2347C189.354 27.9411 190.418 27.8454 191.438 27.9476C192.458 28.0498 193.395 28.3327 194.249 28.7962C195.099 29.2468 195.826 29.8544 196.428 30.6189C197.04 31.3672 197.483 32.2569 197.756 33.288C198.026 34.3062 198.082 35.2983 197.924 36.2643C197.779 37.2268 197.45 38.1208 196.937 38.9462C196.422 39.7587 195.746 40.4618 194.91 41.0556C194.074 41.6494 193.102 42.0931 191.994 42.3867ZM191.015 38.694C191.441 38.5813 191.813 38.3999 192.133 38.1496C192.466 37.896 192.73 37.5915 192.926 37.2363C193.131 36.8647 193.256 36.4522 193.302 35.9988C193.344 35.5325 193.295 35.0352 193.155 34.5067C193.015 33.9783 192.813 33.5283 192.549 33.1568C192.282 32.7725 191.969 32.476 191.61 32.2676C191.261 32.0428 190.879 31.9026 190.464 31.847C190.062 31.7879 189.649 31.8147 189.223 31.9273C188.798 32.04 188.419 32.2231 188.086 32.4768C187.766 32.7271 187.504 33.038 187.299 33.4095C187.103 33.7648 186.984 34.1755 186.942 34.6418C186.897 35.0952 186.944 35.5862 187.084 36.1146C187.224 36.6431 187.428 37.0995 187.695 37.4838C187.959 37.8553 188.265 38.1534 188.615 38.3782C188.973 38.5866 189.354 38.7204 189.755 38.7795C190.17 38.8351 190.59 38.8067 191.015 38.694Z" fill="#F7901E"/>
<path d="M205.975 38.7612L203.731 24.9421L210.384 23.862C211.674 23.6526 212.82 23.6826 213.823 23.9521C214.839 24.2194 215.668 24.7062 216.309 25.4125C216.949 26.1057 217.355 26.9853 217.528 28.0513C217.701 29.1174 217.594 30.0803 217.207 30.9402C216.817 31.7868 216.182 32.4911 215.301 33.0529C214.432 33.6126 213.353 33.9972 212.064 34.2066L207.997 34.8668L209.759 32.6154L210.634 38.0048L205.975 38.7612ZM214.247 37.4183L210.034 32.9354L214.969 32.1342L219.221 36.6106L214.247 37.4183ZM209.842 33.1286L207.426 31.3528L211.197 30.7407C211.842 30.636 212.292 30.4143 212.548 30.0756C212.817 29.7348 212.911 29.3143 212.829 28.8142C212.748 28.314 212.526 27.9449 212.163 27.7066C211.814 27.4662 211.316 27.3983 210.671 27.503L206.901 28.1152L208.631 25.6663L209.842 33.1286Z" fill="#F7901E"/>
<path d="M229.265 26.8489L235.49 26.4126L235.728 29.8043L229.503 30.2406L229.265 26.8489ZM229.951 32.0537L236.934 31.5643L237.183 35.1156L225.571 35.9295L224.592 21.9637L235.944 21.168L236.193 24.7193L229.47 25.1906L229.951 32.0537Z" fill="#F7901E"/>
<path d="M260.423 35.7946C259.253 35.7125 258.132 35.5003 257.06 35.1578C255.988 34.8153 255.114 34.4066 254.439 33.9316L256.196 30.6063C256.834 31.0386 257.55 31.4029 258.345 31.6992C259.153 31.9831 259.943 32.1521 260.715 32.2062C261.167 32.2379 261.521 32.236 261.778 32.2005C262.049 32.1526 262.247 32.0797 262.375 31.9817C262.503 31.8704 262.572 31.7349 262.584 31.5753C262.601 31.3226 262.476 31.1133 262.207 30.9474C261.937 30.7815 261.573 30.6357 261.114 30.51C260.67 30.3719 260.178 30.2305 259.64 30.0859C259.104 29.9279 258.562 29.7363 258.017 29.5109C257.484 29.2865 256.996 29.005 256.552 28.6664C256.121 28.3288 255.784 27.9042 255.539 27.3925C255.295 26.8675 255.199 26.2325 255.251 25.4877C255.312 24.6232 255.606 23.8552 256.135 23.1838C256.677 22.5001 257.442 21.979 258.429 21.6205C259.43 21.2629 260.649 21.1345 262.085 21.2351C263.03 21.3013 263.954 21.4663 264.857 21.7302C265.761 21.994 266.564 22.3577 267.267 22.8213L265.611 26.1337C264.944 25.7394 264.291 25.4329 263.651 25.2143C263.025 24.9967 262.406 24.8664 261.794 24.8235C261.341 24.7918 260.98 24.8066 260.708 24.8677C260.436 24.9289 260.236 25.0218 260.107 25.1464C259.991 25.2719 259.928 25.4145 259.917 25.5741C259.9 25.8135 260.026 26.0162 260.295 26.1821C260.565 26.3347 260.923 26.4733 261.369 26.5982C261.828 26.7239 262.326 26.8591 262.864 27.0037C263.415 27.1493 263.957 27.3343 264.489 27.5587C265.021 27.7831 265.503 28.0641 265.934 28.4018C266.378 28.7403 266.722 29.1654 266.967 29.6771C267.212 30.1888 267.309 30.8105 267.257 31.542C267.198 32.3932 266.897 33.1607 266.354 33.8445C265.826 34.5159 265.068 35.0374 264.079 35.4092C263.092 35.7677 261.873 35.8962 260.423 35.7946Z" fill="#F7901E"/>
<path d="M281.066 38.1994C279.961 38.0199 278.962 37.6821 278.07 37.1861C277.193 36.679 276.458 36.0464 275.865 35.2883C275.286 34.5323 274.877 33.6824 274.638 32.7387C274.4 31.7949 274.367 30.79 274.54 29.724C274.713 28.6579 275.062 27.715 275.587 26.8952C276.112 26.0754 276.769 25.3986 277.558 24.8648C278.36 24.3331 279.256 23.9721 280.246 23.7816C281.251 23.5801 282.307 23.5691 283.412 23.7486C284.768 23.9687 285.927 24.4 286.89 25.0426C287.866 25.6873 288.623 26.5127 289.162 27.5188L285.795 29.6669C285.47 29.0873 285.08 28.6188 284.625 28.2612C284.185 27.8926 283.656 27.6581 283.037 27.5577C282.55 27.4786 282.096 27.486 281.676 27.5798C281.255 27.6737 280.876 27.8484 280.537 28.1041C280.212 28.362 279.935 28.6952 279.706 29.1039C279.48 29.4994 279.324 29.9604 279.239 30.4868C279.153 31.0132 279.154 31.5064 279.241 31.9664C279.331 32.4132 279.489 32.8104 279.717 33.1579C279.957 33.5077 280.262 33.7935 280.631 34.0156C281 34.2376 281.428 34.3881 281.915 34.4672C282.534 34.5676 283.109 34.5192 283.641 34.3219C284.188 34.1135 284.707 33.7858 285.199 33.3388L287.714 36.442C286.886 37.2126 285.906 37.756 284.775 38.072C283.658 38.377 282.422 38.4195 281.066 38.1994Z" fill="#F7901E"/>
<path d="M293.457 40.2208L296.979 26.6709L303.502 28.3662C304.767 28.6948 305.803 29.1847 306.612 29.8358C307.434 30.4902 307.996 31.2699 308.298 32.175C308.603 33.0671 308.62 34.0359 308.349 35.0812C308.077 36.1264 307.591 36.9644 306.89 37.5949C306.192 38.2126 305.326 38.6008 304.293 38.7593C303.273 38.9213 302.131 38.8379 300.866 38.5093L296.878 37.473L299.399 36.1236L298.025 41.408L293.457 40.2208ZM301.568 42.3286L299.521 36.5273L304.36 37.7849L306.446 43.5963L301.568 42.3286ZM299.268 36.6268L297.774 34.0274L301.471 34.9883C302.103 35.1526 302.605 35.1314 302.975 34.9246C303.359 34.7212 303.614 34.3743 303.742 33.8839C303.869 33.3935 303.815 32.9661 303.579 32.6017C303.356 32.2407 302.928 31.978 302.296 31.8137L298.599 30.8529L301.17 29.3099L299.268 36.6268Z" fill="#F7901E"/>
<path d="M319.312 48.3182C318.248 47.9272 317.322 47.3949 316.532 46.7212C315.755 46.0521 315.148 45.289 314.71 44.432C314.277 43.5625 314.026 42.6395 313.959 41.663C313.904 40.6911 314.059 39.7108 314.422 38.7222C314.79 37.721 315.307 36.8741 315.974 36.1815C316.658 35.481 317.444 34.9461 318.332 34.5766C319.226 34.1947 320.185 34.0004 321.21 33.9936C322.248 33.9915 323.299 34.186 324.362 34.5769C325.439 34.9725 326.365 35.5049 327.142 36.1739C327.919 36.843 328.524 37.6123 328.957 38.4819C329.395 39.3389 329.642 40.2533 329.696 41.2252C329.768 42.1892 329.62 43.1718 329.252 44.1729C328.889 45.1616 328.365 46.0062 327.682 46.7067C327.011 47.4118 326.228 47.9553 325.335 48.3373C324.446 48.7067 323.489 48.8948 322.464 48.9015C321.439 48.9082 320.388 48.7138 319.312 48.3182ZM320.63 44.7327C321.043 44.8845 321.452 44.9497 321.858 44.9283C322.276 44.9115 322.667 44.8138 323.031 44.635C323.412 44.4484 323.751 44.1824 324.049 43.8372C324.351 43.4794 324.596 43.0439 324.784 42.5308C324.973 42.0177 325.066 41.5333 325.063 41.0776C325.064 40.6095 324.978 40.1871 324.804 39.8106C324.647 39.4262 324.415 39.0922 324.107 38.8086C323.812 38.5296 323.458 38.3142 323.045 38.1624C322.632 38.0106 322.216 37.9431 321.798 37.9599C321.392 37.9813 320.999 38.0853 320.618 38.272C320.254 38.4507 319.921 38.7189 319.619 39.0767C319.321 39.422 319.079 39.8512 318.89 40.3643C318.701 40.8774 318.606 41.3681 318.605 41.8362C318.608 42.2919 318.688 42.712 318.845 43.0964C319.019 43.4729 319.253 43.8007 319.549 44.0796C319.856 44.3632 320.217 44.5809 320.63 44.7327Z" fill="#F7901E"/>
<path d="M332.837 53.4002L338.87 40.7669L343.129 42.8009L338.674 52.1315L344.377 54.855L342.799 58.1577L332.837 53.4002Z" fill="#F7901E"/>
<path d="M348.783 61.345L355.855 49.2622L359.929 51.6463L354.706 60.5703L360.16 63.7626L358.312 66.9214L348.783 61.345Z" fill="#F7901E"/>
<path d="M375.299 78.7403L381.697 70.6172L378.476 68.0804L380.741 65.2051L390.891 73.199L388.626 76.0744L385.405 73.5376L379.008 81.6607L375.299 78.7403Z" fill="#F7901E"/>
<path d="M392.596 93.9989C391.777 93.2158 391.14 92.3579 390.685 91.4252C390.24 90.5017 389.987 89.5596 389.928 88.599C389.878 87.6288 390.016 86.6826 390.345 85.7605C390.682 84.8475 391.215 84.0102 391.943 83.2488C392.68 82.4776 393.492 81.9076 394.38 81.5385C395.286 81.1691 396.22 80.9923 397.183 81.0083C398.154 81.0146 399.111 81.2192 400.054 81.6222C401.006 82.0345 401.892 82.6321 402.711 83.4152C403.54 84.2074 404.177 85.0653 404.623 85.9889C405.068 86.9124 405.316 87.8593 405.366 88.8295C405.426 89.79 405.286 90.7268 404.949 91.6398C404.63 92.5523 404.102 93.3942 403.365 94.1653C402.637 94.9268 401.82 95.4923 400.914 95.8617C400.017 96.2404 399.083 96.4266 398.111 96.4203C397.149 96.4043 396.197 96.1948 395.254 95.7918C394.311 95.3888 393.425 94.7911 392.596 93.9989ZM395.236 91.2373C395.554 91.5413 395.903 91.7644 396.283 91.9067C396.674 92.0582 397.071 92.1246 397.476 92.106C397.9 92.087 398.317 91.9785 398.728 91.7806C399.147 91.5731 399.546 91.2717 399.924 90.8765C400.302 90.4813 400.58 90.0742 400.759 89.6552C400.947 89.2266 401.037 88.8049 401.028 88.3902C401.037 87.975 400.957 87.576 400.788 87.1932C400.629 86.8196 400.39 86.4808 400.072 86.1768C399.754 85.8728 399.4 85.645 399.01 85.4935C398.629 85.3513 398.227 85.2896 397.803 85.3087C397.398 85.3273 396.986 85.4403 396.566 85.6479C396.156 85.8458 395.762 86.1423 395.384 86.5375C395.006 86.9327 394.723 87.3447 394.535 87.7733C394.356 88.1923 394.261 88.6094 394.252 89.0245C394.261 89.4393 394.346 89.8334 394.505 90.207C394.674 90.5899 394.918 90.9333 395.236 91.2373Z" fill="#F7901E"/>
<path d="M419.709 110.279L423.541 115.205L420.857 117.292L417.026 112.367L419.709 110.279ZM415.77 113.749L420.068 119.274L417.258 121.46L410.111 112.272L421.161 103.677L428.148 112.659L425.338 114.845L421.2 109.525L415.77 113.749Z" fill="#F7901E"/>
<path d="M420.729 126.186L431.437 126.758L428.644 128.515L432.629 118.809L435.479 123.278L432.988 129.042L431.756 127.147L438.007 127.24L440.739 131.523L430.409 130.948L433.174 129.184L429.097 139.305L426.193 134.752L428.886 128.859L430.075 130.686L423.622 130.722L420.729 126.186Z" fill="#F7901E"/>
<path d="M432.3 145.003L444.769 138.636L447.834 144.639C448.428 145.802 448.751 146.903 448.801 147.94C448.858 148.989 448.648 149.927 448.172 150.754C447.708 151.575 446.995 152.231 446.033 152.722C445.071 153.213 444.122 153.406 443.185 153.301C442.248 153.195 441.365 152.815 440.536 152.16C439.726 151.511 439.023 150.605 438.429 149.441L436.555 145.772L439.31 146.723L434.447 149.207L432.3 145.003ZM438.846 146.96L439.797 144.116L441.535 147.519C441.832 148.1 442.181 148.461 442.581 148.601C442.988 148.752 443.417 148.713 443.868 148.483C444.32 148.252 444.603 147.928 444.719 147.509C444.841 147.103 444.753 146.609 444.456 146.027L442.718 142.625L445.579 143.522L438.846 146.96Z" fill="#F7901E"/>
<path d="M440.986 162.801L453.969 157.563L455.736 161.94L446.147 165.809L448.511 171.67L445.117 173.039L440.986 162.801Z" fill="#F7901E"/>
<path d="M449.221 186.52C448.897 185.434 448.768 184.373 448.834 183.338C448.904 182.315 449.151 181.371 449.575 180.507C450.012 179.639 450.601 178.886 451.342 178.247C452.088 177.621 452.965 177.157 453.974 176.856C454.996 176.55 455.984 176.457 456.938 176.576C457.909 176.704 458.808 177.012 459.636 177.503C460.477 177.989 461.208 178.641 461.827 179.457C462.451 180.287 462.925 181.245 463.249 182.331C463.577 183.43 463.706 184.49 463.636 185.513C463.565 186.536 463.312 187.481 462.875 188.349C462.452 189.213 461.867 189.958 461.122 190.585C460.393 191.22 459.517 191.69 458.495 191.995C457.486 192.296 456.496 192.383 455.526 192.256C454.559 192.141 453.655 191.84 452.814 191.354C451.986 190.864 451.262 190.21 450.643 189.393C450.023 188.576 449.549 187.619 449.221 186.52ZM452.881 185.427C453.007 185.848 453.2 186.215 453.46 186.527C453.724 186.852 454.037 187.106 454.398 187.291C454.776 187.484 455.192 187.596 455.647 187.628C456.114 187.655 456.61 187.59 457.133 187.434C457.657 187.278 458.101 187.062 458.464 186.786C458.839 186.507 459.126 186.185 459.323 185.82C459.537 185.464 459.665 185.078 459.708 184.662C459.754 184.258 459.714 183.845 459.589 183.424C459.463 183.002 459.268 182.629 459.004 182.304C458.744 181.992 458.425 181.74 458.047 181.546C457.686 181.362 457.271 181.256 456.804 181.229C456.349 181.198 455.86 181.26 455.336 181.417C454.813 181.573 454.363 181.791 453.987 182.07C453.624 182.345 453.336 182.661 453.122 183.017C452.925 183.382 452.803 183.767 452.756 184.17C452.714 184.586 452.755 185.005 452.881 185.427Z" fill="#F7901E"/>
<path d="M453.281 200.379L467.023 197.704L468.31 204.32C468.56 205.603 468.566 206.749 468.328 207.76C468.093 208.784 467.632 209.627 466.946 210.291C466.273 210.951 465.407 211.385 464.347 211.591C463.286 211.798 462.321 211.721 461.449 211.36C460.591 210.998 459.867 210.385 459.278 209.521C458.691 208.671 458.273 207.605 458.023 206.322L457.236 202.278L459.542 203.969L454.182 205.012L453.281 200.379ZM454.882 208.604L459.23 204.253L460.186 209.161L455.845 213.552L454.882 208.604ZM459.031 204.068L460.731 201.598L461.461 205.348C461.585 205.989 461.821 206.432 462.168 206.677C462.517 206.935 462.94 207.016 463.437 206.919C463.935 206.822 464.297 206.589 464.523 206.218C464.753 205.861 464.805 205.362 464.68 204.721L463.95 200.971L466.452 202.624L459.031 204.068Z" fill="#F7901E"/>
<path d="M465.916 223.286L466.547 229.494L463.164 229.838L462.533 223.63L465.916 223.286ZM460.735 224.134L461.443 231.099L457.901 231.458L456.724 219.878L470.653 218.463L471.803 229.785L468.261 230.144L467.58 223.439L460.735 224.134Z" fill="#F7901E"/>
<path d="M457.95 254.709C457.996 253.537 458.173 252.41 458.482 251.327C458.79 250.245 459.172 249.359 459.625 248.67L463.004 250.322C462.592 250.973 462.25 251.7 461.979 252.504C461.72 253.321 461.576 254.116 461.546 254.889C461.529 255.342 461.542 255.696 461.585 255.951C461.641 256.22 461.72 256.416 461.822 256.541C461.938 256.665 462.075 256.73 462.235 256.737C462.488 256.746 462.694 256.614 462.851 256.34C463.008 256.066 463.143 255.698 463.254 255.235C463.378 254.786 463.504 254.291 463.632 253.748C463.773 253.207 463.947 252.66 464.156 252.107C464.363 251.568 464.629 251.072 464.954 250.617C465.278 250.176 465.692 249.825 466.196 249.564C466.713 249.304 467.344 249.189 468.09 249.218C468.956 249.251 469.733 249.521 470.421 250.028C471.121 250.549 471.666 251.297 472.055 252.273C472.444 253.262 472.61 254.476 472.555 255.915C472.518 256.861 472.382 257.79 472.147 258.702C471.911 259.613 471.573 260.427 471.131 261.144L467.769 259.593C468.142 258.913 468.428 258.251 468.626 257.605C468.824 256.972 468.935 256.349 468.959 255.736C468.976 255.283 468.95 254.922 468.881 254.652C468.811 254.383 468.712 254.185 468.583 254.06C468.454 253.948 468.31 253.89 468.15 253.883C467.91 253.874 467.712 254.006 467.554 254.281C467.41 254.555 467.283 254.917 467.172 255.367C467.061 255.829 466.941 256.332 466.813 256.874C466.685 257.429 466.517 257.977 466.309 258.516C466.102 259.055 465.836 259.545 465.512 259.986C465.187 260.44 464.773 260.798 464.269 261.059C463.766 261.319 463.147 261.435 462.415 261.407C461.562 261.374 460.785 261.097 460.085 260.576C459.397 260.069 458.852 259.328 458.45 258.351C458.061 257.376 457.894 256.162 457.95 254.709Z" fill="#F7901E"/>
<path d="M456.19 275.418C456.335 274.307 456.641 273.298 457.109 272.391C457.589 271.499 458.198 270.745 458.937 270.129C459.675 269.526 460.511 269.09 461.447 268.822C462.383 268.554 463.386 268.49 464.457 268.63C465.528 268.77 466.482 269.089 467.318 269.588C468.153 270.087 468.85 270.722 469.409 271.494C469.965 272.279 470.354 273.164 470.575 274.147C470.808 275.146 470.852 276.2 470.707 277.311C470.53 278.673 470.135 279.845 469.523 280.827C468.909 281.823 468.108 282.606 467.119 283.176L464.866 279.877C465.436 279.535 465.892 279.13 466.235 278.664C466.589 278.213 466.807 277.676 466.888 277.055C466.952 276.566 466.931 276.113 466.824 275.695C466.717 275.278 466.53 274.904 466.264 274.573C465.996 274.256 465.654 273.99 465.239 273.774C464.836 273.56 464.371 273.419 463.842 273.35C463.313 273.281 462.82 273.297 462.363 273.399C461.919 273.503 461.527 273.673 461.187 273.911C460.845 274.163 460.569 274.476 460.358 274.852C460.148 275.228 460.011 275.661 459.947 276.15C459.866 276.771 459.933 277.345 460.146 277.87C460.372 278.41 460.716 278.919 461.178 279.396L458.155 282.007C457.359 281.204 456.785 280.242 456.434 279.12C456.094 278.014 456.013 276.78 456.19 275.418Z" fill="#F7901E"/>
<path d="M454.558 287.864L468.212 290.96L466.721 297.533C466.432 298.808 465.975 299.859 465.35 300.688C464.721 301.53 463.959 302.116 463.064 302.446C462.182 302.78 461.214 302.827 460.161 302.588C459.108 302.349 458.255 301.889 457.603 301.208C456.964 300.53 456.549 299.677 456.358 298.649C456.164 297.635 456.212 296.49 456.501 295.216L457.412 291.198L458.839 293.675L453.514 292.468L454.558 287.864ZM452.705 296.037L458.439 293.81L457.334 298.686L451.591 300.952L452.705 296.037ZM458.332 293.56L460.883 291.985L460.039 295.711C459.894 296.348 459.931 296.848 460.149 297.212C460.365 297.589 460.719 297.834 461.214 297.946C461.708 298.058 462.133 297.99 462.49 297.743C462.844 297.509 463.093 297.073 463.238 296.436L464.082 292.71L465.705 295.232L458.332 293.56Z" fill="#F7901E"/>
<path d="M447.273 313.96C447.63 312.885 448.133 311.942 448.782 311.132C449.426 310.334 450.17 309.703 451.013 309.239C451.869 308.779 452.783 308.5 453.757 308.402C454.727 308.317 455.711 308.44 456.711 308.773C457.723 309.109 458.586 309.6 459.299 310.244C460.02 310.906 460.58 311.675 460.977 312.551C461.387 313.432 461.611 314.385 461.65 315.409C461.684 316.447 461.523 317.503 461.165 318.578C460.803 319.667 460.3 320.609 459.656 321.407C459.011 322.204 458.261 322.833 457.406 323.293C456.563 323.758 455.657 324.033 454.687 324.118C453.726 324.22 452.739 324.102 451.727 323.766C450.727 323.434 449.867 322.937 449.145 322.275C448.419 321.627 447.852 320.862 447.442 319.981C447.045 319.104 446.827 318.154 446.788 317.129C446.749 316.105 446.911 315.048 447.273 313.96ZM450.898 315.165C450.759 315.583 450.706 315.994 450.74 316.399C450.77 316.816 450.88 317.204 451.07 317.562C451.269 317.937 451.545 318.268 451.9 318.554C452.267 318.845 452.71 319.076 453.228 319.249C453.747 319.421 454.234 319.499 454.689 319.482C455.157 319.469 455.577 319.369 455.948 319.183C456.327 319.015 456.654 318.772 456.928 318.455C457.197 318.152 457.401 317.791 457.54 317.373C457.679 316.956 457.733 316.538 457.704 316.121C457.67 315.716 457.553 315.326 457.355 314.951C457.165 314.593 456.886 314.269 456.519 313.978C456.165 313.691 455.728 313.462 455.209 313.29C454.691 313.117 454.197 313.037 453.729 313.05C453.274 313.068 452.857 313.161 452.477 313.33C452.106 313.516 451.786 313.76 451.517 314.064C451.243 314.381 451.036 314.748 450.898 315.165Z" fill="#F7901E"/>
<path d="M442.617 327.638L455.433 333.273L453.533 337.594L444.068 333.432L441.524 339.218L438.173 337.744L442.617 327.638Z" fill="#F7901E"/>
<path d="M435.175 343.825L447.473 350.515L445.218 354.662L436.135 349.721L433.115 355.272L429.9 353.523L435.175 343.825Z" fill="#F7901E"/>
<path d="M418.618 370.873L426.937 377.013L429.372 373.715L432.316 375.888L424.644 386.283L421.699 384.11L424.134 380.811L415.815 374.67L418.618 370.873Z" fill="#F7901E"/>
<path d="M403.907 388.637C404.664 387.793 405.502 387.13 406.42 386.646C407.329 386.172 408.263 385.89 409.221 385.801C410.189 385.72 411.139 385.829 412.071 386.129C412.994 386.438 413.848 386.944 414.632 387.647C415.425 388.36 416.021 389.154 416.417 390.03C416.815 390.924 417.021 391.852 417.035 392.815C417.059 393.786 416.884 394.749 416.511 395.704C416.129 396.669 415.559 397.573 414.802 398.416C414.036 399.269 413.199 399.933 412.289 400.407C411.38 400.881 410.442 401.158 409.473 401.239C408.515 401.328 407.574 401.218 406.651 400.91C405.729 400.619 404.871 400.118 404.078 399.406C403.294 398.702 402.703 397.903 402.305 397.009C401.899 396.124 401.684 395.196 401.659 394.225C401.645 393.263 401.825 392.304 402.198 391.349C402.572 390.394 403.141 389.49 403.907 388.637ZM406.75 391.189C406.456 391.516 406.244 391.872 406.114 392.257C405.974 392.651 405.92 393.051 405.952 393.455C405.984 393.878 406.105 394.292 406.316 394.696C406.537 395.109 406.85 395.498 407.257 395.863C407.664 396.228 408.08 396.494 408.504 396.66C408.938 396.835 409.363 396.911 409.777 396.889C410.192 396.885 410.588 396.793 410.966 396.612C411.334 396.441 411.665 396.192 411.959 395.864C412.253 395.537 412.47 395.176 412.609 394.781C412.739 394.397 412.788 393.993 412.756 393.57C412.725 393.165 412.599 392.757 412.378 392.344C412.168 391.939 411.859 391.555 411.452 391.19C411.045 390.825 410.625 390.555 410.19 390.38C409.766 390.214 409.346 390.133 408.931 390.136C408.517 390.158 408.125 390.255 407.757 390.426C407.379 390.607 407.044 390.861 406.75 391.189Z" fill="#F7901E"/>
<path d="M388.483 416.246L383.68 420.23L381.51 417.613L386.313 413.629L388.483 416.246ZM384.892 412.417L379.504 416.886L377.231 414.145L386.191 406.715L395.128 417.491L386.368 424.756L384.096 422.016L389.284 417.713L384.892 412.417Z" fill="#F7901E"/>
<path d="M372.614 417.762L372.378 428.482L370.533 425.746L380.359 429.426L375.982 432.414L370.143 430.105L371.998 428.814L372.101 435.065L367.905 437.929L368.157 427.586L370.007 430.295L359.764 426.536L364.223 423.491L370.198 425.999L368.409 427.245L368.171 420.796L372.614 417.762Z" fill="#F7901E"/>
<path d="M354.169 429.918L360.923 442.181L355.019 445.433C353.875 446.063 352.785 446.42 351.75 446.503C350.703 446.592 349.759 446.412 348.918 445.962C348.083 445.524 347.405 444.831 346.884 443.885C346.363 442.939 346.14 441.996 346.216 441.057C346.292 440.117 346.645 439.222 347.273 438.374C347.897 437.543 348.781 436.813 349.925 436.183L353.534 434.195L352.669 436.978L350.035 432.195L354.169 429.918ZM352.418 436.522L355.29 437.383L351.944 439.226C351.372 439.542 351.022 439.902 350.895 440.306C350.756 440.718 350.809 441.145 351.053 441.589C351.298 442.033 351.631 442.306 352.053 442.409C352.463 442.518 352.954 442.415 353.526 442.099L356.872 440.257L356.065 443.144L352.418 436.522Z" fill="#F7901E"/>
<path d="M336.651 439.156L342.293 451.969L337.974 453.871L333.807 444.408L328.023 446.955L326.548 443.605L336.651 439.156Z" fill="#F7901E"/>
<path d="M313.201 448.128C314.277 447.769 315.333 447.607 316.37 447.641C317.395 447.68 318.346 447.897 319.222 448.294C320.104 448.703 320.875 449.268 321.537 449.989C322.186 450.715 322.677 451.577 323.01 452.576C323.347 453.588 323.471 454.573 323.382 455.53C323.285 456.504 323.004 457.413 322.54 458.256C322.08 459.111 321.452 459.862 320.655 460.507C319.845 461.156 318.903 461.659 317.827 462.017C316.739 462.38 315.683 462.542 314.659 462.504C313.634 462.465 312.681 462.242 311.8 461.832C310.923 461.436 310.16 460.875 309.511 460.149C308.853 459.441 308.356 458.581 308.019 457.569C307.686 456.569 307.568 455.583 307.666 454.609C307.75 453.639 308.023 452.726 308.482 451.87C308.946 451.027 309.577 450.283 310.374 449.638C311.171 448.993 312.114 448.49 313.201 448.128ZM314.408 451.752C313.991 451.891 313.63 452.095 313.327 452.365C313.011 452.639 312.766 452.959 312.593 453.326C312.411 453.71 312.312 454.129 312.295 454.585C312.283 455.053 312.363 455.546 312.535 456.065C312.708 456.583 312.938 457.02 313.224 457.374C313.515 457.741 313.846 458.017 314.217 458.203C314.58 458.405 314.97 458.521 315.387 458.551C315.792 458.585 316.203 458.532 316.62 458.393C317.038 458.254 317.405 458.048 317.721 457.774C318.025 457.504 318.267 457.177 318.448 456.794C318.621 456.427 318.714 456.009 318.727 455.541C318.744 455.086 318.666 454.599 318.494 454.08C318.321 453.562 318.089 453.119 317.798 452.752C317.512 452.398 317.187 452.119 316.824 451.917C316.453 451.731 316.066 451.622 315.661 451.588C315.243 451.558 314.826 451.613 314.408 451.752Z" fill="#F7901E"/>
<path d="M299.476 452.62L302.579 466.272L296.007 467.766C294.732 468.055 293.586 468.097 292.569 467.891C291.538 467.687 290.681 467.253 289.996 466.588C289.315 465.937 288.854 465.084 288.615 464.031C288.376 462.978 288.422 462.01 288.755 461.128C289.091 460.258 289.681 459.516 290.525 458.9C291.357 458.287 292.41 457.836 293.684 457.546L297.701 456.633L296.083 458.99L294.873 453.666L299.476 452.62ZM291.304 454.477L295.789 458.688L290.913 459.796L286.39 455.594L291.304 454.477ZM295.968 458.483L298.49 460.104L294.765 460.951C294.128 461.096 293.693 461.345 293.459 461.699C293.212 462.056 293.144 462.482 293.257 462.976C293.369 463.47 293.614 463.825 293.991 464.04C294.355 464.258 294.855 464.294 295.492 464.15L299.217 463.303L297.644 465.855L295.968 458.483Z" fill="#F7901E"/>
<path d="M276.976 465.965L270.791 466.789L270.342 463.419L276.527 462.594L276.976 465.965ZM275.967 460.813L269.028 461.738L268.558 458.209L280.095 456.671L281.946 470.548L270.665 472.052L270.195 468.523L276.876 467.632L275.967 460.813Z" fill="#F7901E"/>
<circle cx="246.5" cy="246.5" r="245.5" stroke="#1F3E53" stroke-width="2"/>
<circle cx="247" cy="247" r="190" stroke="#1F3E53" stroke-width="2"/>
</svg>
